<svg width="42" height="36" viewBox="0 0 42 36" fill="none" xmlns="http://www.w3.org/2000/svg">
<g opacity="0.2">
<path fill-rule="evenodd" clip-rule="evenodd" d="M38.64 7.72684H32.6725L29.8734 0.702454H12.1266L9.3275 7.72684H8.40175V4.21465H4.20087V7.72684H3.36C1.50762 7.72684 0 9.23972 0 11.0986V31.7257C0 33.5986 1.51725 35.1211 3.38363 35.1211H38.6164C40.4827 35.1211 42 33.5986 42 31.7257V11.0986C42 9.23972 40.4924 7.72684 38.64 7.72684ZM5.59825 7.72684H7V5.62128H5.59825V7.72684ZM40.5982 31.7257C40.5982 32.8267 39.7101 33.7188 38.6164 33.7188H3.38363C2.28988 33.7188 1.40175 32.8232 1.40175 31.7257V11.0986C1.40175 10.0142 2.27938 9.13348 3.36 9.13348H10.2743L13.0734 2.10909H28.9266L31.7257 9.13348H38.64C39.7206 9.13348 40.5982 10.0142 40.5982 11.0986V31.7257Z" fill="black"/>
<path fill-rule="evenodd" clip-rule="evenodd" d="M21.0006 7.0235C14.0522 7.0235 8.40234 12.6966 8.40234 19.67C8.40234 26.6391 14.0522 32.3122 21.0006 32.3122C27.949 32.3122 33.5988 26.6391 33.5988 19.67C33.5988 12.6966 27.949 7.0235 21.0006 7.0235ZM21.0006 30.9055C14.824 30.9055 9.79972 25.8638 9.79972 19.67C9.79972 13.4719 14.824 8.43013 21.0006 8.43013C27.1772 8.43013 32.2015 13.4719 32.2015 19.67C32.2015 25.8638 27.1772 30.9055 21.0006 30.9055Z" fill="black"/>
<path fill-rule="evenodd" clip-rule="evenodd" d="M20.9994 11.239C16.368 11.239 12.5977 15.019 12.5977 19.67C12.5977 24.3176 16.368 28.0967 20.9994 28.0967C25.6308 28.0967 29.4012 24.3176 29.4012 19.67C29.4012 15.019 25.6308 11.239 20.9994 11.239ZM20.9994 26.6944C17.1407 26.6944 13.9994 23.5422 13.9994 19.67C13.9994 15.7935 17.1407 12.6456 20.9994 12.6456C24.8582 12.6456 27.9994 15.7935 27.9994 19.67C27.9994 23.5422 24.8582 26.6944 20.9994 26.6944Z" fill="black"/>
<path fill-rule="evenodd" clip-rule="evenodd" d="M36.4012 10.5357C34.8559 10.5357 33.5977 11.7983 33.5977 13.3446C33.5977 14.8952 34.8559 16.1579 36.4012 16.1579C37.942 16.1579 39.2003 14.8952 39.2003 13.3446C39.2003 11.7983 37.942 10.5357 36.4012 10.5357ZM36.4012 14.7512C35.6285 14.7512 34.9994 14.1199 34.9994 13.3446C34.9994 12.5737 35.6285 11.9423 36.4012 11.9423C37.1694 11.9423 37.7985 12.5737 37.7985 13.3446C37.7985 14.1199 37.1694 14.7512 36.4012 14.7512Z" fill="black"/>
</g>
</svg>
