<svg width="26" height="15" viewBox="0 0 26 15" fill="none" xmlns="http://www.w3.org/2000/svg">
<path fill-rule="evenodd" clip-rule="evenodd" d="M8.01159 1.2221C8.26106 0.97578 8.26106 0.577885 8.01159 0.331569C7.76448 0.0844639 7.36659 0.0844639 7.12027 0.331569L0.816324 6.63157C0.699482 6.75157 0.631586 6.91183 0.631586 7.07841C0.631586 7.08157 0.634745 7.08788 0.634745 7.09104C0.634745 7.09736 0.631586 7.10052 0.631586 7.10683C0.631586 7.31604 0.739744 7.4921 0.900007 7.60578L7.14474 13.8537C7.39185 14.1008 7.79211 14.1008 8.03922 13.8537C8.28553 13.6074 8.28553 13.2095 8.03922 12.9631L2.81527 7.73525L25.2624 7.73525C25.6113 7.73525 25.8947 7.45499 25.8947 7.10683C25.8947 6.75473 25.6113 6.47446 25.2624 6.47446L2.76238 6.47446L8.01159 1.2221Z" fill="#4E72CA"/>
</svg>
